<?xml version="1.0" encoding="UTF-8"?> <!-- Generator: Adobe Illustrator 21.0.0, SVG Export Plug-In . SVG Version: 6.00 Build 0) --> <svg xmlns="http://www.w3.org/2000/svg" xmlns:xlink="http://www.w3.org/1999/xlink" id="Layer_1" x="0px" y="0px" viewBox="0 0 100.353 100.353" style="enable-background:new 0 0 100.353 100.353;" xml:space="preserve"> <path style="fill:#231F20;" d="M94.821,47.066c-0.654-2.55-2.262-4.691-4.527-6.03c-2.268-1.34-4.921-1.715-7.471-1.059 c-4.767,1.227-7.812,5.761-7.339,10.516l-9.983,2.571c0.105-0.747,0.178-1.504,0.178-2.28c0-9.021-7.339-16.36-16.36-16.36 c-0.662,0-1.311,0.051-1.953,0.128l2.895-8.645c0.558,0.097,1.12,0.149,1.681,0.149c1.504,0,2.998-0.348,4.383-1.038 c2.356-1.173,4.114-3.195,4.951-5.692C63,14.173,60.212,8.576,55.061,6.85c-5.151-1.724-10.75,1.064-12.477,6.218 c-1.563,4.666,0.586,9.687,4.835,11.876L44.03,35.067c-0.03,0.091-0.05,0.183-0.062,0.275c-6.151,2.138-10.631,7.84-10.967,14.628 l-8.579-2.879c0.813-4.709-1.898-9.45-6.563-11.015c-2.498-0.838-5.169-0.653-7.525,0.519c-2.358,1.172-4.117,3.192-4.953,5.687 c-1.729,5.151,1.055,10.75,6.206,12.482c1.036,0.347,2.089,0.512,3.126,0.512c3.635,0,7.059-2.031,8.764-5.337l9.68,3.248 c1.168,7.884,7.96,13.959,16.164,13.959c0.657,0,1.302-0.05,1.938-0.125l-3.638,7.391c-1.989-0.63-4.116-0.623-6.125,0.061 c-2.491,0.847-4.504,2.615-5.667,4.977c-1.164,2.362-1.339,5.035-0.491,7.527c0.847,2.493,2.615,4.506,4.979,5.669 c1.374,0.677,2.854,1.018,4.342,1.018c1.069,0,2.143-0.176,3.186-0.531c2.492-0.849,4.505-2.616,5.666-4.976 c1.165-2.364,1.339-5.038,0.491-7.529c-0.685-2.01-1.976-3.699-3.688-4.891l4.713-9.576c0.011-0.023,0.016-0.047,0.026-0.071 c4.459-1.676,7.988-5.236,9.624-9.714L76.232,53.4c0.818,1.919,2.208,3.528,4.038,4.609c1.538,0.908,3.253,1.373,4.993,1.373 c0.824,0,1.654-0.104,2.474-0.315c2.552-0.657,4.693-2.267,6.031-4.533C95.104,52.267,95.479,49.615,94.821,47.066z M45.428,14.022 c1.202-3.584,5.092-5.527,8.68-4.326c3.583,1.2,5.521,5.094,4.322,8.679c-0.581,1.737-1.804,3.143-3.442,3.959 c-1.639,0.815-3.496,0.945-5.233,0.363l0,0l0,0C46.169,21.495,44.229,17.604,45.428,14.022z M50.818,86.831 c-0.809,1.642-2.208,2.872-3.942,3.462c-1.731,0.59-3.593,0.471-5.234-0.338c-1.645-0.809-2.874-2.209-3.464-3.943 c-0.589-1.733-0.467-3.593,0.343-5.237s2.209-2.873,3.941-3.462c0.723-0.246,1.467-0.368,2.209-0.368 c1.037,0,2.068,0.238,3.025,0.71c0.001,0,0.001,0,0.001,0c1.644,0.809,2.874,2.208,3.463,3.94 C51.749,83.326,51.628,85.186,50.818,86.831z M12.541,51.92c-3.584-1.204-5.521-5.1-4.317-8.684c0.582-1.735,1.806-3.14,3.445-3.955 c0.964-0.479,2.002-0.721,3.047-0.721c0.734,0,1.472,0.119,2.188,0.359c3.581,1.202,5.518,5.095,4.317,8.679 C20.017,51.183,16.127,53.123,12.541,51.92z M49.32,64.146c-7.367,0-13.36-5.994-13.36-13.362c0-7.367,5.993-13.36,13.36-13.36 s13.36,5.993,13.36,13.36C62.68,58.152,56.687,64.146,49.32,64.146z M91.183,53.008c-0.931,1.576-2.421,2.696-4.196,3.153 c-1.771,0.456-3.615,0.196-5.192-0.735s-2.696-2.421-3.152-4.195c-0.942-3.661,1.27-7.405,4.93-8.347 c0.571-0.147,1.149-0.22,1.724-0.22c1.21,0,2.403,0.324,3.473,0.956c1.575,0.931,2.693,2.42,3.147,4.192 c0,0,0.001,0.001,0.001,0.002C92.373,49.587,92.113,51.432,91.183,53.008z"></path> </svg> 